<svg width="80" height="80" viewBox="0 0 80 80" fill="none" xmlns="http://www.w3.org/2000/svg">
<g clip-path="url(#clip0_3758_8979)">
<rect x="-313" width="393" height="372" fill="#EEE7DD"/>
<rect x="-313" width="393" height="372" fill="#EEE7DD"/>
<path d="M39.3976 20.8497C37.6935 19.539 36.4731 21.0678 36.3034 22.8616C36.0822 25.2051 37.4824 27.1223 39.8668 27.3899C41.5199 27.5759 44.1576 27.6436 45.8253 27.6844C47.5537 27.6447 49.2802 27.577 50.9936 27.3843C53.378 27.1166 54.7788 25.1994 54.557 22.8554C54.3874 21.0611 53.1675 19.5328 51.4628 20.8435C51.053 21.1587 49.7611 23.558 49.2725 22.2442C48.7795 20.9185 49.3138 19.2135 50.4676 18.4964C51.597 17.7938 53.0756 17.9483 54.2157 18.6308C55.741 19.5437 56.7406 21.3726 56.7299 23.233C56.7124 26.2631 54.0305 28.6955 51.3495 29.1186C50.2925 29.285 49.2272 29.3826 48.1615 29.4462C48.1226 29.4483 48.0847 29.4503 48.0463 29.4529C47.4716 29.4855 46.9139 29.5449 46.3411 29.5356C46.3183 29.5356 46.2959 29.5351 46.2731 29.5345C45.6191 29.5175 44.9656 29.4999 44.3117 29.472C43.0335 29.4178 40.7677 29.3227 39.5114 29.1248C36.8304 28.7017 34.148 26.2688 34.131 23.2392C34.1203 21.3788 35.1195 19.5494 36.6447 18.6364C37.7854 17.9545 39.2634 17.8 40.3934 18.5026C41.5471 19.2197 42.081 20.9247 41.588 22.2504C41.0998 23.5642 39.8075 21.1654 39.3976 20.8497Z" fill="#143346"/>
<path d="M62.9448 32.9782C64.1783 31.1674 62.7396 29.8706 61.0515 29.6903C58.8461 29.4552 57.0417 30.9432 56.7899 33.4768C56.6149 35.2334 56.5512 37.0034 56.5128 38.775C56.5502 40.6116 56.6139 43.4795 56.7952 45.3002C57.0471 47.8338 58.8514 49.3223 61.0573 49.0867C62.7459 48.9064 64.1841 47.6101 62.9506 45.7987C62.654 45.3632 60.3961 43.9905 61.6325 43.4713C62.8801 42.9474 64.4846 43.5152 65.1594 44.7412C65.8207 45.9413 65.6753 47.5125 65.033 48.724C64.1739 50.3447 62.4527 51.4069 60.7019 51.3956C57.8508 51.377 55.5613 48.5271 55.163 45.6784C55.0065 44.5552 54.9146 43.4232 54.8548 42.2907C54.8528 42.2494 54.8509 42.2091 54.8485 42.1683C54.8178 41.5576 54.7619 39.9317 54.7707 39.3231C54.7707 39.2988 54.7712 39.2751 54.7717 39.2508C54.7877 38.5559 54.8042 37.8615 54.8305 37.1667C54.881 35.8084 54.971 34.4341 55.1572 33.0991C55.5554 30.2503 57.845 27.4 60.6961 27.3819C62.4469 27.3706 64.1681 28.4323 65.0277 30.053C65.6695 31.265 65.8149 32.8356 65.1536 34.0363C64.4788 35.2623 62.8743 35.8296 61.6267 35.3057C60.3903 34.787 62.6477 33.4137 62.9448 32.9782Z" fill="#143346"/>
<path d="M50.3782 38.6789C50.367 38.713 50.3587 38.7476 50.3465 38.7817C49.8861 40.1483 48.6142 41.042 46.9946 40.9847C45.1592 40.9196 43.8061 39.2834 43.8465 37.1775C43.8824 35.3187 45.1451 34.1469 47.1274 34.1309C47.2859 34.1299 47.4342 34.1531 47.5854 34.1702C47.6763 34.1665 47.7638 34.1309 47.8547 34.1386C48.2427 34.1707 48.6249 34.3035 48.9599 34.5158C49.327 34.7488 49.6143 35.0882 49.8618 35.4607C50.0057 35.6581 50.1312 35.871 50.2313 36.1034C50.2362 36.1153 50.2454 36.1251 50.2508 36.137C50.2517 36.1401 50.2522 36.1443 50.2537 36.1484C50.3606 36.4062 50.4394 36.6821 50.4866 36.9755C50.4934 37.0143 50.491 37.0525 50.4963 37.0913C50.5206 37.2731 50.5444 37.455 50.5444 37.6477C50.5439 37.6957 50.5328 37.7391 50.5308 37.7862C50.5274 37.8698 50.5157 37.9494 50.5065 38.0321C50.4827 38.2573 50.4404 38.4723 50.3782 38.6789Z" fill="#143346"/>
<path d="M66.8781 357.032C67.2136 357.032 67.4858 356.743 67.4858 356.386V70.3369C67.4858 62.9173 61.805 56.8809 54.8231 56.8809C54.4876 56.8809 54.2153 57.1702 54.2153 57.5267C54.2153 57.8837 54.4876 58.1725 54.8231 58.1725C61.135 58.1725 66.2703 63.6298 66.2703 70.3369V356.386C66.2703 356.743 66.5426 357.032 66.8781 357.032Z" fill="#143346"/>
<path d="M28.6391 30.1163C28.9746 30.1163 29.2468 29.827 29.2468 29.4705C29.2468 22.0427 23.5597 16 16.5695 16H-137.393C-137.729 16 -138 16.2888 -138 16.6458C-138 17.0023 -137.729 17.2916 -137.393 17.2916H16.5695C22.8897 17.2916 28.0313 22.7551 28.0313 29.4705C28.0313 29.827 28.3036 30.1163 28.6391 30.1163Z" fill="#143346"/>
</g>
<defs>
<clipPath id="clip0_3758_8979">
<rect width="80" height="80" fill="white"/>
</clipPath>
</defs>
</svg>
