<svg width="80" height="80" viewBox="0 0 80 80" fill="none" xmlns="http://www.w3.org/2000/svg">
<g clip-path="url(#clip0_3758_9071)">
<rect width="393" height="372" fill="#EEE7DD"/>
<rect width="393" height="372" fill="#EEE7DD"/>
<path d="M41.0882 20.8497C42.7924 19.539 44.0128 21.0678 44.1824 22.8616C44.4037 25.2051 43.0034 27.1223 40.619 27.3899C38.9659 27.5759 36.3283 27.6436 34.6606 27.6844C32.9321 27.6447 31.2056 27.577 29.4922 27.3843C27.1078 27.1166 25.7071 25.1994 25.9288 22.8554C26.0985 21.0611 27.3184 19.5328 29.023 20.8435C29.4329 21.1587 30.7247 23.558 31.2134 22.2442C31.7064 20.9185 31.172 19.2135 30.0183 18.4964C28.8888 17.7938 27.4103 17.9483 26.2701 18.6308C24.7449 19.5437 23.7452 21.3726 23.7559 23.233C23.7734 26.2631 26.4554 28.6955 29.1363 29.1186C30.1933 29.285 31.2586 29.3826 32.3244 29.4462C32.3633 29.4483 32.4012 29.4503 32.4396 29.4529C33.0143 29.4855 33.572 29.5449 34.1447 29.5356C34.1676 29.5356 34.1899 29.5351 34.2128 29.5345C34.8667 29.5175 35.5202 29.4999 36.1741 29.472C37.4524 29.4178 39.7181 29.3227 40.9745 29.1248C43.6554 28.7017 46.3378 26.2688 46.3548 23.2392C46.3655 21.3788 45.3664 19.5494 43.8411 18.6364C42.7005 17.9545 41.2224 17.8 40.0925 18.5026C38.9387 19.2197 38.4049 20.9247 38.8979 22.2504C39.386 23.5642 40.6784 21.1654 41.0882 20.8497Z" fill="#143346"/>
<path d="M17.5411 32.9782C16.3076 31.1674 17.7462 29.8706 19.4343 29.6903C21.6398 29.4552 23.4441 30.9432 23.6959 33.4768C23.871 35.2334 23.9347 37.0034 23.9731 38.775C23.9356 40.6116 23.872 43.4795 23.6906 45.3002C23.4387 47.8338 21.6344 49.3223 19.4285 49.0867C17.7399 48.9064 16.3017 47.6101 17.5352 45.7987C17.8318 45.3632 20.0898 43.9905 18.8533 43.4713C17.6057 42.9474 16.0012 43.5152 15.3264 44.7412C14.6651 45.9413 14.8105 47.5125 15.4528 48.724C16.3119 50.3447 18.0331 51.4069 19.7839 51.3956C22.635 51.377 24.9246 48.5271 25.3228 45.6784C25.4794 44.5552 25.5712 43.4232 25.631 42.2907C25.633 42.2494 25.6349 42.2091 25.6374 42.1683C25.668 41.5576 25.7239 39.9317 25.7152 39.3231C25.7152 39.2988 25.7147 39.2751 25.7142 39.2508C25.6981 38.5559 25.6816 37.8615 25.6554 37.1667C25.6048 35.8084 25.5148 34.4341 25.3286 33.0991C24.9304 30.2503 22.6409 27.4 19.7898 27.3819C18.0389 27.3706 16.3178 28.4323 15.4582 30.053C14.8164 31.265 14.671 32.8356 15.3322 34.0363C16.0071 35.2623 17.6116 35.8296 18.8592 35.3057C20.0956 34.787 17.8381 33.4137 17.5411 32.9782Z" fill="#143346"/>
<path d="M30.1077 38.6789C30.1189 38.713 30.1271 38.7476 30.1393 38.7817C30.5997 40.1483 31.8716 41.042 33.4912 40.9847C35.3266 40.9196 36.6797 39.2834 36.6394 37.1775C36.6034 35.3187 35.3407 34.1469 33.3585 34.1309C33.2 34.1299 33.0517 34.1531 32.9005 34.1702C32.8095 34.1665 32.722 34.1309 32.6311 34.1386C32.2431 34.1707 31.8609 34.3035 31.526 34.5158C31.1589 34.7488 30.8715 35.0882 30.624 35.4607C30.4801 35.6581 30.3547 35.871 30.2545 36.1034C30.2497 36.1153 30.2404 36.1251 30.2351 36.137C30.2341 36.1401 30.2336 36.1443 30.2322 36.1484C30.1252 36.4062 30.0464 36.6821 29.9993 36.9755C29.9925 37.0143 29.9949 37.0525 29.9895 37.0913C29.9652 37.2731 29.9414 37.455 29.9414 37.6477C29.9419 37.6957 29.9531 37.7391 29.955 37.7862C29.9584 37.8698 29.9701 37.9494 29.9793 38.0321C30.0032 38.2573 30.0455 38.4723 30.1077 38.6789Z" fill="#143346"/>
<path d="M13.6078 214.032C13.2723 214.032 13 213.743 13 213.386V70.3369C13 62.9173 18.6808 56.8809 25.6628 56.8809C25.9982 56.8809 26.2705 57.1702 26.2705 57.5267C26.2705 57.8837 25.9982 58.1725 25.6628 58.1725C19.3508 58.1725 14.2155 63.6298 14.2155 70.3369V213.386C14.2155 213.743 13.9432 214.032 13.6078 214.032Z" fill="#143346"/>
<path d="M51.8468 30.1163C51.5113 30.1163 51.239 29.827 51.239 29.4705C51.239 22.0427 56.9262 16 63.9164 16H217.878C218.214 16 218.486 16.2888 218.486 16.6458C218.486 17.0023 218.214 17.2916 217.878 17.2916H63.9164C57.5962 17.2916 52.4545 22.7551 52.4545 29.4705C52.4545 29.827 52.1823 30.1163 51.8468 30.1163Z" fill="#143346"/>
</g>
<defs>
<clipPath id="clip0_3758_9071">
<rect width="80" height="80" fill="white"/>
</clipPath>
</defs>
</svg>
