<svg width="80" height="80" viewBox="0 0 80 80" fill="none" xmlns="http://www.w3.org/2000/svg">
<g clip-path="url(#clip0_3863_10513)">
<rect width="80" height="80" fill="#EEE7DD"/>
<path d="M39.9161 59.1527C38.2121 60.4634 36.9921 58.9347 36.8221 57.1409C36.6011 54.7974 38.0011 52.8802 40.3851 52.6125C42.0391 52.4265 44.6761 52.3589 46.3441 52.3181C48.0721 52.3578 49.7991 52.4255 51.5121 52.6182C53.8971 52.8858 55.2971 54.8031 55.0761 57.1471C54.9061 58.9414 53.6861 60.4696 51.9811 59.1589C51.5721 58.8437 50.2801 56.4444 49.7911 57.7583C49.2981 59.084 49.8321 60.7889 50.9861 61.506C52.1161 62.2086 53.5941 62.0542 54.7341 61.3717C56.2601 60.4588 57.2591 58.6299 57.2491 56.7694C57.2311 53.7393 54.5491 51.307 51.8681 50.8838C50.8111 50.7175 49.7461 50.6198 48.6801 50.5563C48.6411 50.5542 48.6031 50.5522 48.5651 50.5496C47.9901 50.517 47.4331 50.4576 46.8601 50.4669C46.8371 50.4669 46.8151 50.4674 46.7921 50.4679C46.1381 50.485 45.4841 50.5026 44.8301 50.5305C43.5521 50.5847 41.2861 50.6798 40.0301 50.8776C37.3491 51.3008 34.6671 53.7337 34.6501 56.7632C34.6391 58.6237 35.6381 60.4531 37.1631 61.366C38.3041 62.048 39.7821 62.2024 40.9121 61.4998C42.0661 60.7827 42.6001 59.0778 42.1071 57.7521C41.6181 56.4382 40.3261 58.837 39.9161 59.1527Z" fill="#143346"/>
<path d="M63.4635 47.0237C64.6975 48.8345 63.2585 50.1313 61.5705 50.3116C59.3655 50.5467 57.5605 49.0587 57.3095 46.5251C57.1345 44.7685 57.0705 42.9985 57.0315 41.2269C57.0695 39.3903 57.1335 36.5224 57.3145 34.7017C57.5665 32.1681 59.3705 30.6796 61.5765 30.9152C63.2655 31.0955 64.7035 32.3918 63.4695 34.2032C63.1735 34.6387 60.9155 36.0114 62.1515 36.5306C63.3995 37.0545 65.0035 36.4867 65.6785 35.2607C66.3395 34.0606 66.1945 32.4894 65.5525 31.2779C64.6935 29.6572 62.9715 28.595 61.2215 28.6063C58.3695 28.6249 56.0805 31.4748 55.6825 34.3235C55.5255 35.4467 55.4335 36.5787 55.3735 37.7112C55.3725 37.7525 55.3705 37.7928 55.3675 37.8336C55.3375 38.4443 55.2815 40.0702 55.2895 40.6788C55.2895 40.7031 55.2905 40.7268 55.2905 40.7511C55.3065 41.446 55.3235 42.1404 55.3495 42.8352C55.4005 44.1935 55.4905 45.5678 55.6765 46.9028C56.0745 49.7516 58.3645 52.6019 61.2155 52.62C62.9665 52.6313 64.6875 51.5696 65.5465 49.9489C66.1885 48.7369 66.3345 47.1663 65.6725 45.9656C64.9975 44.7396 63.3935 44.1723 62.1455 44.6962C60.9095 45.2149 63.1665 46.5882 63.4635 47.0237Z" fill="#143346"/>
<path d="M50.8977 41.324C50.8867 41.2899 50.8777 41.2552 50.8657 41.2212C50.4057 39.8546 49.1337 38.9608 47.5137 39.0182C45.6787 39.0833 44.3257 40.7195 44.3657 42.8253C44.4017 44.6842 45.6647 45.856 47.6467 45.872C47.8057 45.873 47.9537 45.8498 48.1047 45.8327C48.1957 45.8363 48.2827 45.872 48.3737 45.8642C48.7617 45.8322 49.1447 45.6994 49.4797 45.4871C49.8467 45.2541 50.1337 44.9146 50.3807 44.5421C50.5247 44.3448 50.6507 44.1319 50.7507 43.8994C50.7557 43.8876 50.7647 43.8777 50.7697 43.8659C50.7707 43.8628 50.7717 43.8586 50.7727 43.8545C50.8797 43.5967 50.9587 43.3208 51.0057 43.0273C51.0127 42.9886 51.0107 42.9504 51.0157 42.9116C51.0397 42.7298 51.0637 42.5479 51.0637 42.3552C51.0637 42.3071 51.0517 42.2637 51.0497 42.2167C51.0467 42.133 51.0347 42.0535 51.0257 41.9708C51.0017 41.7455 50.9597 41.5306 50.8977 41.324Z" fill="#143346"/>
<path d="M67.0049 -133.998V10.5024C67.0049 12.1286 66.1749 15.0223 64.2249 17.5063C62.2909 19.9689 59.2779 22.0024 54.9069 22.0024C54.6309 22.0024 54.4069 22.2263 54.4069 22.5024C54.4069 22.7785 54.6309 23.0024 54.9069 23.0024C59.6349 23.0024 62.9209 20.7858 65.0119 18.1235C67.0849 15.4827 68.0049 12.3758 68.0049 10.5024V-133.998C68.0049 -134.274 67.7809 -134.498 67.5049 -134.498C67.2289 -134.497 67.0049 -134.273 67.0049 -133.998Z" fill="#143346"/>
<path d="M-127.995 63.002H16.5055C18.1315 63.002 21.0255 62.1723 23.5095 60.2217C25.9715 58.2878 28.0055 55.275 28.0055 50.9043C28.0055 50.6282 28.2295 50.4043 28.5055 50.4043C28.7815 50.4043 29.0055 50.6282 29.0055 50.9043C29.0055 55.6315 26.7885 58.9182 24.1265 61.0088C21.4855 63.0824 18.3785 64.002 16.5055 64.002L-127.995 64.002C-128.271 64.0018 -128.495 63.778 -128.495 63.502C-128.494 63.226 -128.27 63.0021 -127.995 63.002Z" fill="#143346"/>
</g>
<defs>
<clipPath id="clip0_3863_10513">
<rect width="80" height="80" fill="white"/>
</clipPath>
</defs>
</svg>
