<svg width="80" height="80" viewBox="0 0 80 80" fill="none" xmlns="http://www.w3.org/2000/svg">
<g clip-path="url(#clip0_3863_10473)">
<rect width="80" height="80" fill="#EEE7DD"/>
<path d="M39.9106 20.8493C38.2066 19.5385 36.9866 21.0673 36.8166 22.8611C36.5956 25.2046 37.9956 27.1218 40.3796 27.3895C42.0336 27.5755 44.6706 27.6431 46.3386 27.6839C48.0666 27.6442 49.7936 27.5765 51.5066 27.3838C53.8916 27.1162 55.2916 25.1989 55.0706 22.8549C54.9006 21.0606 53.6806 19.5323 51.9756 20.8431C51.5666 21.1582 50.2746 23.5575 49.7856 22.2437C49.2926 20.918 49.8266 19.2131 50.9806 18.4959C52.1106 17.7933 53.5886 17.9478 54.7286 18.6303C56.2546 19.5432 57.2536 21.3721 57.2436 23.2325C57.2256 26.2627 54.5436 28.695 51.8626 29.1182C50.8056 29.2845 49.7406 29.3822 48.6746 29.4457C48.6356 29.4478 48.5976 29.4498 48.5596 29.4524C47.9846 29.485 47.4276 29.5444 46.8546 29.5351C46.8316 29.5351 46.8096 29.5346 46.7866 29.5341C46.1326 29.517 45.4786 29.4994 44.8246 29.4715C43.5466 29.4173 41.2806 29.3222 40.0246 29.1244C37.3436 28.7012 34.6616 26.2683 34.6446 23.2387C34.6336 21.3783 35.6326 19.5489 37.1576 18.636C38.2986 17.954 39.7766 17.7995 40.9066 18.5021C42.0606 19.2193 42.5946 20.9242 42.1016 22.2499C41.6126 23.5637 40.3206 21.1649 39.9106 20.8493Z" fill="#143346"/>
<path d="M63.458 32.9782C64.692 31.1674 63.253 29.8706 61.565 29.6903C59.36 29.4552 57.555 30.9432 57.304 33.4768C57.129 35.2334 57.065 37.0034 57.026 38.775C57.064 40.6116 57.128 43.4795 57.309 45.3002C57.561 47.8338 59.365 49.3223 61.571 49.0867C63.26 48.9064 64.698 47.6101 63.464 45.7987C63.168 45.3632 60.91 43.9905 62.146 43.4713C63.394 42.9474 64.998 43.5152 65.673 44.7412C66.334 45.9413 66.189 47.5125 65.547 48.724C64.688 50.3447 62.966 51.4069 61.216 51.3956C58.364 51.377 56.075 48.5271 55.677 45.6784C55.52 44.5552 55.428 43.4232 55.368 42.2907C55.367 42.2494 55.365 42.2091 55.362 42.1683C55.332 41.5576 55.276 39.9317 55.284 39.3231C55.284 39.2988 55.285 39.2751 55.285 39.2508C55.301 38.5559 55.318 37.8615 55.344 37.1667C55.395 35.8084 55.485 34.4341 55.671 33.0991C56.069 30.2503 58.359 27.4 61.21 27.3819C62.961 27.3706 64.682 28.4323 65.541 30.053C66.183 31.265 66.329 32.8356 65.667 34.0363C64.992 35.2623 63.388 35.8296 62.14 35.3057C60.904 34.787 63.161 33.4137 63.458 32.9782Z" fill="#143346"/>
<path d="M50.8922 38.6779C50.8812 38.712 50.8722 38.7467 50.8602 38.7807C50.4002 40.1473 49.1282 41.0411 47.5082 40.9837C45.6732 40.9186 44.3202 39.2824 44.3602 37.1766C44.3962 35.3177 45.6592 34.1459 47.6412 34.1299C47.8002 34.1289 47.9482 34.1521 48.0992 34.1692C48.1902 34.1656 48.2772 34.1299 48.3682 34.1377C48.7562 34.1697 49.1392 34.3025 49.4742 34.5148C49.8412 34.7478 50.1282 35.0873 50.3752 35.4598C50.5192 35.6571 50.6452 35.87 50.7452 36.1025C50.7502 36.1143 50.7592 36.1242 50.7642 36.136C50.7652 36.1391 50.7662 36.1433 50.7672 36.1474C50.8742 36.4052 50.9532 36.6811 51.0002 36.9746C51.0072 37.0133 51.0052 37.0515 51.0102 37.0903C51.0342 37.2721 51.0582 37.454 51.0582 37.6467C51.0582 37.6948 51.0462 37.7382 51.0442 37.7852C51.0412 37.8689 51.0292 37.9484 51.0202 38.0311C50.9962 38.2564 50.9542 38.4713 50.8922 38.6779Z" fill="#143346"/>
<path d="M66.9994 214V69.4995C66.9994 67.8733 66.1694 64.9796 64.2194 62.4956C62.2854 60.033 59.2724 57.9995 54.9014 57.9995C54.6254 57.9995 54.4014 57.7756 54.4014 57.4995C54.4014 57.2234 54.6254 56.9995 54.9014 56.9995C59.6294 56.9995 62.9154 59.2161 65.0064 61.8784C67.0794 64.5192 67.9994 67.6261 67.9994 69.4995V214C67.9994 214.276 67.7754 214.5 67.4994 214.5C67.2234 214.499 66.9994 214.275 66.9994 214Z" fill="#143346"/>
<path d="M-128 17H16.5C18.126 17 21.02 17.8296 23.504 19.7803C25.966 21.7141 28 24.7269 28 29.0977C28 29.3738 28.224 29.5977 28.5 29.5977C28.776 29.5977 29 29.3738 29 29.0977C29 24.3704 26.783 21.0838 24.121 18.9932C21.48 16.9196 18.373 16 16.5 16L-128 16C-128.276 16.0001 -128.5 16.2239 -128.5 16.5C-128.5 16.7759 -128.276 16.9999 -128 17Z" fill="#143346"/>
</g>
<defs>
<clipPath id="clip0_3863_10473">
<rect width="80" height="80" fill="white"/>
</clipPath>
</defs>
</svg>
