<svg width="80" height="80" viewBox="0 0 80 80" fill="none" xmlns="http://www.w3.org/2000/svg">
<g clip-path="url(#clip0_3863_10545)">
<rect width="80" height="80" fill="#EEE7DD"/>
<path d="M40.0888 59.1527C41.7928 60.4634 43.0128 58.9347 43.1828 57.1409C43.4038 54.7974 42.0038 52.8802 39.6198 52.6125C37.9658 52.4265 35.3288 52.3589 33.6608 52.3181C31.9328 52.3578 30.2058 52.4255 28.4928 52.6182C26.1078 52.8858 24.7078 54.8031 24.9288 57.1471C25.0988 58.9414 26.3188 60.4696 28.0238 59.1589C28.4328 58.8437 29.7248 56.4444 30.2138 57.7583C30.7068 59.084 30.1728 60.7889 29.0188 61.506C27.8888 62.2086 26.4108 62.0542 25.2708 61.3717C23.7448 60.4588 22.7458 58.6299 22.7558 56.7694C22.7738 53.7393 25.4558 51.307 28.1368 50.8838C29.1938 50.7175 30.2588 50.6198 31.3248 50.5563C31.3638 50.5542 31.4018 50.5522 31.4398 50.5496C32.0148 50.517 32.5718 50.4576 33.1448 50.4669C33.1678 50.4669 33.1898 50.4674 33.2128 50.4679C33.8668 50.485 34.5208 50.5026 35.1748 50.5305C36.4528 50.5847 38.7188 50.6798 39.9748 50.8776C42.6558 51.3008 45.3378 53.7337 45.3548 56.7632C45.3658 58.6237 44.3668 60.4531 42.8418 61.366C41.7008 62.048 40.2228 62.2024 39.0928 61.4998C37.9388 60.7827 37.4048 59.0778 37.8978 57.7521C38.3868 56.4382 39.6788 58.837 40.0888 59.1527Z" fill="#143346"/>
<path d="M16.5414 47.0237C15.3074 48.8345 16.7464 50.1313 18.4344 50.3116C20.6394 50.5467 22.4444 49.0587 22.6954 46.5251C22.8704 44.7685 22.9344 42.9985 22.9734 41.2269C22.9354 39.3903 22.8714 36.5224 22.6904 34.7017C22.4384 32.1681 20.6344 30.6796 18.4284 30.9152C16.7394 31.0955 15.3014 32.3918 16.5354 34.2032C16.8314 34.6387 19.0894 36.0114 17.8534 36.5306C16.6054 37.0545 15.0014 36.4867 14.3264 35.2607C13.6654 34.0606 13.8104 32.4894 14.4524 31.2779C15.3114 29.6572 17.0334 28.595 18.7834 28.6063C21.6354 28.6249 23.9244 31.4748 24.3224 34.3235C24.4794 35.4467 24.5714 36.5787 24.6314 37.7112C24.6324 37.7525 24.6344 37.7928 24.6374 37.8336C24.6674 38.4443 24.7234 40.0702 24.7154 40.6788C24.7154 40.7031 24.7144 40.7268 24.7144 40.7511C24.6984 41.446 24.6814 42.1404 24.6554 42.8352C24.6044 44.1935 24.5144 45.5678 24.3284 46.9028C23.9304 49.7516 21.6404 52.6019 18.7894 52.62C17.0384 52.6313 15.3174 51.5696 14.4584 49.9489C13.8164 48.7369 13.6704 47.1663 14.3324 45.9656C15.0074 44.7396 16.6114 44.1723 17.8594 44.6962C19.0954 45.2149 16.8384 46.5882 16.5414 47.0237Z" fill="#143346"/>
<path d="M29.1072 41.324C29.1182 41.2899 29.1272 41.2552 29.1392 41.2212C29.5992 39.8546 30.8712 38.9608 32.4912 39.0182C34.3262 39.0833 35.6792 40.7195 35.6392 42.8253C35.6032 44.6842 34.3401 45.856 32.3581 45.872C32.1991 45.873 32.0512 45.8498 31.9002 45.8327C31.8092 45.8363 31.7222 45.872 31.6312 45.8642C31.2432 45.8322 30.8602 45.6994 30.5252 45.4871C30.1582 45.2541 29.8712 44.9146 29.6242 44.5421C29.4802 44.3448 29.3542 44.1319 29.2542 43.8994C29.2492 43.8876 29.2401 43.8777 29.2351 43.8659C29.2341 43.8628 29.2332 43.8586 29.2322 43.8545C29.1252 43.5967 29.0462 43.3208 28.9992 43.0273C28.9922 42.9886 28.9942 42.9504 28.9892 42.9116C28.9652 42.7298 28.9412 42.5479 28.9412 42.3552C28.9412 42.3071 28.9531 42.2637 28.9551 42.2167C28.9581 42.133 28.9701 42.0535 28.9791 41.9708C29.0031 41.7455 29.0452 41.5306 29.1072 41.324Z" fill="#143346"/>
<path d="M13 -133.998V10.5024C13 12.1286 13.83 15.0223 15.78 17.5063C17.714 19.9689 20.727 22.0024 25.098 22.0024C25.374 22.0024 25.598 22.2263 25.598 22.5024C25.598 22.7785 25.374 23.0024 25.098 23.0024C20.37 23.0024 17.084 20.7858 14.993 18.1235C12.92 15.4827 12 12.3758 12 10.5024V-133.998C12 -134.274 12.224 -134.498 12.5 -134.498C12.776 -134.497 13 -134.273 13 -133.998Z" fill="#143346"/>
<path d="M207.999 63.002H63.4994C61.8734 63.002 58.9794 62.1723 56.4954 60.2217C54.0334 58.2878 51.9994 55.275 51.9994 50.9043C51.9994 50.6282 51.7754 50.4043 51.4994 50.4043C51.2234 50.4043 50.9994 50.6282 50.9994 50.9043C50.9994 55.6315 53.2164 58.9182 55.8784 61.0088C58.5194 63.0824 61.6264 64.002 63.4994 64.002L207.999 64.002C208.275 64.0018 208.499 63.778 208.499 63.502C208.499 63.226 208.275 63.0021 207.999 63.002Z" fill="#143346"/>
</g>
<defs>
<clipPath id="clip0_3863_10545">
<rect width="80" height="80" fill="white"/>
</clipPath>
</defs>
</svg>
