<svg width="80" height="80" viewBox="0 0 80 80" fill="none" xmlns="http://www.w3.org/2000/svg">
<g clip-path="url(#clip0_3863_10537)">
<rect width="80" height="80" fill="#EEE7DD"/>
<path d="M40.0888 20.8493C41.7928 19.5385 43.0128 21.0673 43.1828 22.8611C43.4038 25.2046 42.0038 27.1218 39.6198 27.3895C37.9658 27.5755 35.3288 27.6431 33.6608 27.6839C31.9328 27.6442 30.2058 27.5765 28.4928 27.3838C26.1078 27.1162 24.7078 25.1989 24.9288 22.8549C25.0988 21.0606 26.3188 19.5323 28.0238 20.8431C28.4328 21.1582 29.7248 23.5575 30.2138 22.2437C30.7068 20.918 30.1728 19.2131 29.0188 18.4959C27.8888 17.7933 26.4108 17.9478 25.2708 18.6303C23.7448 19.5432 22.7458 21.3721 22.7558 23.2325C22.7738 26.2627 25.4558 28.695 28.1368 29.1182C29.1938 29.2845 30.2588 29.3822 31.3248 29.4457C31.3638 29.4478 31.4018 29.4498 31.4398 29.4524C32.0148 29.485 32.5718 29.5444 33.1448 29.5351C33.1678 29.5351 33.1898 29.5346 33.2128 29.5341C33.8668 29.517 34.5208 29.4994 35.1748 29.4715C36.4528 29.4173 38.7188 29.3222 39.9748 29.1244C42.6558 28.7012 45.3378 26.2683 45.3548 23.2387C45.3658 21.3783 44.3668 19.5489 42.8418 18.636C41.7008 17.954 40.2228 17.7995 39.0928 18.5021C37.9388 19.2193 37.4048 20.9242 37.8978 22.2499C38.3868 23.5637 39.6788 21.1649 40.0888 20.8493Z" fill="#143346"/>
<path d="M16.5414 32.9782C15.3074 31.1674 16.7464 29.8706 18.4344 29.6903C20.6394 29.4552 22.4444 30.9432 22.6954 33.4768C22.8704 35.2334 22.9344 37.0034 22.9734 38.775C22.9354 40.6116 22.8714 43.4795 22.6904 45.3002C22.4384 47.8338 20.6344 49.3223 18.4284 49.0867C16.7394 48.9064 15.3014 47.6101 16.5354 45.7987C16.8314 45.3632 19.0894 43.9905 17.8534 43.4713C16.6054 42.9474 15.0014 43.5152 14.3264 44.7412C13.6654 45.9413 13.8104 47.5125 14.4524 48.724C15.3114 50.3447 17.0334 51.4069 18.7834 51.3956C21.6354 51.377 23.9244 48.5271 24.3224 45.6784C24.4794 44.5552 24.5714 43.4232 24.6314 42.2907C24.6324 42.2494 24.6344 42.2091 24.6374 42.1683C24.6674 41.5576 24.7234 39.9317 24.7154 39.3231C24.7154 39.2988 24.7144 39.2751 24.7144 39.2508C24.6984 38.5559 24.6814 37.8615 24.6554 37.1667C24.6044 35.8084 24.5144 34.4341 24.3284 33.0991C23.9304 30.2503 21.6404 27.4 18.7894 27.3819C17.0384 27.3706 15.3174 28.4323 14.4584 30.053C13.8164 31.265 13.6704 32.8356 14.3324 34.0363C15.0074 35.2623 16.6114 35.8296 17.8594 35.3057C19.0954 34.787 16.8384 33.4137 16.5414 32.9782Z" fill="#143346"/>
<path d="M29.1072 38.6779C29.1182 38.712 29.1272 38.7467 29.1392 38.7807C29.5992 40.1473 30.8712 41.0411 32.4912 40.9837C34.3262 40.9186 35.6792 39.2824 35.6392 37.1766C35.6032 35.3177 34.3401 34.1459 32.3581 34.1299C32.1991 34.1289 32.0512 34.1521 31.9002 34.1692C31.8092 34.1656 31.7222 34.1299 31.6312 34.1377C31.2432 34.1697 30.8602 34.3025 30.5252 34.5148C30.1582 34.7478 29.8712 35.0873 29.6242 35.4598C29.4802 35.6571 29.3542 35.87 29.2542 36.1025C29.2492 36.1143 29.2401 36.1242 29.2351 36.136C29.2341 36.1391 29.2332 36.1433 29.2322 36.1474C29.1252 36.4052 29.0462 36.6811 28.9992 36.9746C28.9922 37.0133 28.9942 37.0515 28.9892 37.0903C28.9652 37.2721 28.9412 37.454 28.9412 37.6467C28.9412 37.6948 28.9531 37.7382 28.9551 37.7852C28.9581 37.8689 28.9701 37.9484 28.9791 38.0311C29.0031 38.2564 29.0452 38.4713 29.1072 38.6779Z" fill="#143346"/>
<path d="M13 214V69.4995C13 67.8733 13.83 64.9796 15.78 62.4956C17.714 60.033 20.727 57.9995 25.098 57.9995C25.374 57.9995 25.598 57.7756 25.598 57.4995C25.598 57.2234 25.374 56.9995 25.098 56.9995C20.37 56.9995 17.084 59.2161 14.993 61.8784C12.92 64.5192 12 67.6261 12 69.4995V214C12 214.276 12.224 214.5 12.5 214.5C12.776 214.499 13 214.275 13 214Z" fill="#143346"/>
<path d="M207.999 17H63.4994C61.8734 17 58.9794 17.8296 56.4954 19.7803C54.0334 21.7141 51.9994 24.7269 51.9994 29.0977C51.9994 29.3738 51.7754 29.5977 51.4994 29.5977C51.2234 29.5977 50.9994 29.3738 50.9994 29.0977C50.9994 24.3704 53.2164 21.0838 55.8784 18.9932C58.5194 16.9196 61.6264 16 63.4994 16L207.999 16C208.275 16.0001 208.499 16.2239 208.499 16.5C208.499 16.7759 208.275 16.9999 207.999 17Z" fill="#143346"/>
</g>
<defs>
<clipPath id="clip0_3863_10537">
<rect width="80" height="80" fill="white"/>
</clipPath>
</defs>
</svg>
