<svg width="80" height="80" viewBox="0 0 80 80" fill="none" xmlns="http://www.w3.org/2000/svg">
<g clip-path="url(#clip0_3758_9015)">
<rect x="-169" width="393" height="372" fill="#EEE7DD"/>
<rect x="-169" width="393" height="372" fill="#EEE7DD"/>
<path d="M172.639 30.1163C172.975 30.1163 173.247 29.827 173.247 29.4705C173.247 22.0427 167.56 16 160.569 16H6.60739C6.27142 16 5.99963 16.2888 5.99963 16.6458C5.99963 17.0023 6.27142 17.2916 6.60739 17.2916H160.569C166.89 17.2916 172.031 22.7551 172.031 29.4705C172.031 29.827 172.304 30.1163 172.639 30.1163Z" fill="#143346"/>
<path d="M-117.153 30.1163C-117.489 30.1163 -117.761 29.827 -117.761 29.4705C-117.761 22.0427 -112.074 16 -105.084 16H48.8784C49.2144 16 49.4862 16.2888 49.4862 16.6458C49.4862 17.0023 49.2144 17.2916 48.8784 17.2916H-105.084C-111.404 17.2916 -116.545 22.7551 -116.545 29.4705C-116.545 29.827 -116.818 30.1163 -117.153 30.1163Z" fill="#143346"/>
</g>
<defs>
<clipPath id="clip0_3758_9015">
<rect width="80" height="80" fill="white"/>
</clipPath>
</defs>
</svg>
