<svg width="80" height="80" viewBox="0 0 80 80" fill="none" xmlns="http://www.w3.org/2000/svg">
<g clip-path="url(#clip0_3863_10529)">
<rect width="80" height="80" transform="translate(80 80) rotate(-180)" fill="#EEE7DD"/>
<path d="M12.9986 -59L12.9986 85.5005C12.9986 87.1267 13.8286 90.0204 15.7786 92.5044C17.7126 94.967 20.7256 97.0005 25.0966 97.0005C25.3726 97.0005 25.5966 97.2244 25.5966 97.5005C25.5966 97.7766 25.3726 98.0005 25.0966 98.0005C20.3686 98.0005 17.0826 95.7839 14.9916 93.1216C12.9186 90.4808 11.9986 87.3739 11.9986 85.5005L11.9986 -59C11.9986 -59.276 12.2226 -59.5 12.4986 -59.5C12.7746 -59.499 12.9986 -59.275 12.9986 -59Z" fill="#143346"/>
</g>
<defs>
<clipPath id="clip0_3863_10529">
<rect width="80" height="80" fill="white" transform="translate(80 80) rotate(-180)"/>
</clipPath>
</defs>
</svg>
