<svg width="80" height="80" viewBox="0 0 80 80" fill="none" xmlns="http://www.w3.org/2000/svg">
<g clip-path="url(#clip0_3863_10521)">
<rect width="80" height="80" transform="translate(80 80) rotate(-180)" fill="#EEE7DD"/>
<path d="M126.5 63L-18 63C-19.626 63 -22.52 62.1703 -25.004 60.2197C-27.466 58.2859 -29.5 55.273 -29.5 50.9023C-29.5 50.6262 -29.724 50.4023 -30 50.4023C-30.276 50.4023 -30.5 50.6262 -30.5 50.9023C-30.5 55.6296 -28.283 58.9162 -25.621 61.0068C-22.98 63.0804 -19.873 64 -18 64L126.5 64C126.776 63.9999 127 63.7761 127 63.5C127 63.2241 126.776 63.0001 126.5 63Z" fill="#143346"/>
</g>
<defs>
<clipPath id="clip0_3863_10521">
<rect width="80" height="80" fill="white" transform="translate(80 80) rotate(-180)"/>
</clipPath>
</defs>
</svg>
